inDegrees=yes
name=ik_lifting_orientations
DataType=double
version=3
OpenSimVersion=4.5-2024-01-10-34fd6af
endheader
time	pelvis_tilt	pelvis_list	pelvis_rotation	pelvis_tx	pelvis_ty	pelvis_tz	hip_flexion_r	hip_adduction_r	hip_rotation_r	knee_angle_r	knee_angle_r_beta	ankle_angle_r	subtalar_angle_r	mtp_angle_r	hip_flexion_l	hip_adduction_l	hip_rotation_l	knee_angle_l	knee_angle_l_beta	ankle_angle_l	subtalar_angle_l	mtp_angle_l	lumbar_extension	lumbar_bending	lumbar_rotation	arm_flex_r	arm_add_r	arm_rot_r	elbow_flex_r	pro_sup_r	wrist_flex_r	wrist_dev_r	arm_flex_l	arm_add_l	arm_rot_l	elbow_flex_l	pro_sup_l	wrist_flex_l	wrist_dev_l
1.01	13.81419714235053	-8.189855932763368	17.36331377878519	0	0.9399999998679526	0	44.91978227677446	-10.00246659868422	0	60.11073769867756	1.049130288644603	-4.998821818655651	0	0	44.91978227677446	-10.00246659868422	0	60.11073769867756	1.049130288644603	-4.998821818655651	0	0	-21.4172198880701	-3.365666634561778	9.056435125474524	118.5180887491641	-54.38050040681381	89.93632142613083	45.78144072508793	-0.06123746845142948	0	0	0	-13.98432711535239	0	90.10860031286538	-0.06123746845142948	0	0
1.02	13.81573559667512	-8.194634636400913	17.37705761347561	0	0.9399999998679526	0	44.92017880000015	-10.00243545654549	0	60.1102124404058	1.049121121158337	-4.998839898717649	0	0	44.92017880000015	-10.00243545654549	0	60.1102124404058	1.049121121158337	-4.998839898717649	0	0	-20.84486006910073	-4.168357034201507	7.571915669841228	118.8891599137444	-52.88577272562403	89.9569079612466	49.55852819941173	-0.06100918142357414	0	0	0	-13.98730790383479	0	90.10819448263339	-0.06100918142357414	0	0
1.03	13.81002234927851	-8.196555554582339	17.37254159486123	0	0.9399999998679526	0	44.92040913750229	-10.00241779663555	0	60.10990197823575	1.049115702571267	-4.99885010836504	0	0	44.92040913750229	-10.00241779663555	0	60.10990197823575	1.049115702571267	-4.99885010836504	0	0	-19.83382875653169	-4.933540613618249	7.198757274214145	118.4761903471258	-52.75169226854192	89.96730443327195	51.97874094011508	-0.06087568433643951	0	0	0	-13.98906010497621	0	90.10795716232398	-0.06087568433643951	0	0
1.04	13.81470380586224	-8.191200306929877	17.36628610176521	0	0.9399999998679526	0	44.92067835498629	-10.00239705895042	0	60.1095403469055	1.049109390913876	-4.998862110057825	0	0	44.92067835498629	-10.00239705895042	0	60.1095403469055	1.049109390913876	-4.998862110057825	0	0	-19.37941033633576	-5.91256942802455	5.293025868448598	118.2467292704663	-51.47927377645679	89.97227713507777	54.77926481660553	-0.06071982303646516	0	0	0	-13.99110418095029	0	90.10768008472371	-0.06071982303646516	0	0
1.05	13.8172830316561	-8.191852905274102	17.36174586187446	0	0.9399999998679526	0	44.92091086268799	-10.00237891920756	0	60.10923051951396	1.04910398340578	-4.998872641909848	0	0	44.92091086268799	-10.00237891920756	0	60.10923051951396	1.04910398340578	-4.998872641909848	0	0	-19.33185401907103	-6.683618007733655	4.639393897735567	119.8560263742435	-50.88097500511784	89.97615425638797	58.14020012728123	-0.06058559981072374	0	0	0	-13.99286071179814	0	90.10744147352952	-0.06058559981072374	0	0
1.06	13.40514057262387	-7.430798794019753	15.94058653252119	0	0.9399999998679526	0	44.92109746472661	-10.00236372359099	0	60.10898562334078	1.049099709161233	-4.998881572375705	0	0	44.92109746472661	-10.00236372359099	0	60.10898562334078	1.049099709161233	-4.998881572375705	0	0	-18.91666471962209	-9.194312875234855	4.881863577125328	120.189517410704	-50.68492865491424	89.97998877205967	60.99929493606049	-0.06047877718409537	0	0	0	-13.99425034333133	0	90.1072515728806	-0.06047877718409537	0	0
1.07	13.7140592322101	-6.029739148964681	16.71959188979153	0	0.9399999998679526	0	44.92214129547671	-10.00227155841942	0	60.10779260980028	1.04907888714693	-4.998935513592962	0	0	44.92214129547671	-10.00227155841942	0	60.10779260980028	1.04907888714693	-4.998935513592962	0	0	-18.80696550989058	-11.18166628264103	3.287950726585494	119.6303637588681	-49.4774023463731	89.98356581752434	62.30350554037477	-0.05990480544547638	0	0	0	-14.00145549434479	0	90.10623121155699	-0.05990480544547638	0	0
1.08	13.7297976088027	-6.027956203798242	16.71816374904823	0	0.9399999998679526	0	44.922464478049	-10.00224761416192	0	60.10735808115695	1.04907130319141	-4.998949170710995	0	0	44.922464478049	-10.00224761416192	0	60.10735808115695	1.04907130319141	-4.998949170710995	0	0	-17.81458565950359	-12.46646052004727	1.959755062445514	121.3495480785031	-49.10828452990621	89.9851439699068	67.34022210609953	-0.05971668075118143	0	0	0	-14.00393108439158	0	90.1058967787318	-0.05971668075118143	0	0
1.09	13.71308479593996	-6.041838818805045	16.70471216372684	0	0.9399999998679526	0	44.9231585248033	-10.00218839453226	0	60.1065713621675	1.049057572354756	-4.998983278377102	0	0	44.9231585248033	-10.00218839453226	0	60.1065713621675	1.049057572354756	-4.998983278377102	0	0	-17.77317605563923	-13.23325940100177	1.382202779390604	121.7992110093136	-48.93361105483816	89.98628445112071	69.8191298491045	-0.05933468290542416	0	0	0	-14.00872172096927	0	90.10521769333829	-0.05933468290542416	0	0
1.1	13.71348039179128	-6.032083296489293	16.70952508821313	0	0.9399999998679526	0	44.92408567821828	-10.00210769146956	0	60.10550738455389	1.049039002442231	-4.999030240535516	0	0	44.92408567821828	-10.00210769146956	0	60.10550738455389	1.049039002442231	-4.999030240535516	0	0	-16.89792143239814	-14.03997043247424	0.4971257194218754	122.9428726910978	-48.85097298280866	89.98788842082755	73.37481601334555	-0.05882372657980708	0	0	0	-14.01514600589185	0	90.10430935583348	-0.05882372657980708	0	0
1.11	13.7156195334345	-6.034498888714099	16.70520283223519	0	0.9399999998679526	0	44.92516204515121	-10.00202244741062	0	60.10423394332125	1.049016776699891	-4.999078412362927	0	0	44.92516204515121	-10.00202244741062	0	60.10423394332125	1.049016776699891	-4.999078412362927	0	0	-17.46509980312813	-14.03270562810386	-2.276972618662393	125.4797161738648	-47.08687737347862	89.98956933518816	78.61787610764833	-0.05822000259343559	0	0	0	-14.02283338350463	0	90.10323610365579	-0.05822000259343559	0	0
1.12	13.7132133691831	-6.031731969085691	16.7103668629953	0	0.9399999998679526	0	44.92592930880239	-10.00195917957096	0	60.10334217824539	1.049001212463163	-4.999114544404019	0	0	44.92592930880239	-10.00195917957096	0	60.10334217824539	1.049001212463163	-4.999114544404019	0	0	-16.62197515391555	-14.54918955133065	-2.950260250148154	125.9285820355564	-45.31229668840312	89.99066902991876	80.64686855949914	-0.05779322385022517	0	0	0	-14.0282344690204	0	90.10247741046909	-0.05779322385022517	0	0
1.13	13.70642052969824	-6.035947201945493	16.70429827883613	0	0.9399999998679526	0	44.92672811937916	-10.00189452209319	0	60.10242642776855	1.048985229602215	-4.999150994703747	0	0	44.92672811937916	-10.00189452209319	0	60.10242642776855	1.048985229602215	-4.999150994703747	0	0	-16.50588153343396	-14.80197161800581	-4.879282708730674	127.6155294734268	-44.29720802886403	89.9913486422129	84.12471831141795	-0.05735030031564186	0	0	0	-14.03381669173461	0	90.10169001631499	-0.05735030031564186	0	0
1.14	13.71750920244418	-6.033403432728568	16.7098683070209	0	0.9399999998679526	0	44.92679280656176	-10.00188872601617	0	60.1023552533101	1.048983987373572	-4.999154374421657	0	0	44.92679280656176	-10.00188872601617	0	60.1023552533101	1.048983987373572	-4.999154374421657	0	0	-15.98580519662923	-13.08087434156006	-6.788399584450816	128.0992587677156	-40.86693799249807	89.99272414875894	85.8191938389395	-0.05731507596487539	0	0	0	-14.03425480890361	0	90.1016273972546	-0.05731507596487539	0	0
1.15	13.72565971849789	-6.031458906386542	16.72442548167507	0	0.9399999998679526	0	44.92683554850791	-10.00188486430716	0	60.10230851539639	1.048983171643092	-4.999156630068383	0	0	44.92683554850791	-10.00188486430716	0	60.10230851539639	1.048983171643092	-4.999156630068383	0	0	-15.0572418937223	-12.94978296381365	-8.642908020768418	129.4460264114586	-39.50180348572329	89.99326705758658	89.59659091963316	-0.0572918564363188	0	0	0	-14.0345430494949	0	90.10158611941462	-0.0572918564363188	0	0
1.16	13.72098362665878	-6.033157838853741	16.7251239125992	0	0.9399999998679526	0	44.92688362931469	-10.00188054089384	0	60.10225579255887	1.048982251455986	-4.999159152215131	0	0	44.92688362931469	-10.00188054089384	0	60.10225579255887	1.048982251455986	-4.999159152215131	0	0	-13.91015168843385	-11.63434811844227	-10.7432170785117	130.5688723913787	-36.20156194091341	89.99396740653572	92.36716549236257	-0.05726570493461145	0	0	0	-14.03486800852424	0	90.10153962934578	-0.05726570493461145	0	0
1.17	13.71240983158062	-6.027677423114638	16.70578184965887	0	0.9399999998679526	0	44.92757952488643	-10.00181691454474	0	60.10149767446183	1.048969019799074	-4.999195952352583	0	0	44.92757952488643	-10.00181691454474	0	60.10149767446183	1.048969019799074	-4.999195952352583	0	0	-14.15013509520933	-11.54541489217533	-11.85129735224876	133.0349842316585	-35.57695370934247	89.9943615989656	95.97528530809817	-0.05689206023095587	0	0	0	-14.03945816987775	0	90.1008753932306	-0.05689206023095587	0	0
1.18	14.09913067772635	-5.793964316330523	15.92269289710837	0	0.9399999998679526	0	44.92923508347006	-10.00167021162517	0	60.09958567824069	1.048935649169729	-4.999280055060543	0	0	44.92923508347006	-10.00167021162517	0	60.09958567824069	1.048935649169729	-4.999280055060543	0	0	-14.13962676235337	-10.15018688950558	-12.94798676474902	134.5851592849279	-32.1356131554497	89.99470886043839	98.16839813816419	-0.05599134521787466	0	0	0	-14.05067036146237	0	90.09927417337812	-0.05599134521787466	0	0
1.19	14.76589484352878	-5.009343830803745	16.1590023971477	0	0.9399999998679526	0	44.92927917080847	-10.00166656179835	0	60.09953721783259	1.048934803376051	-4.999282108138089	0	0	44.92927917080847	-10.00166656179835	0	60.09953721783259	1.048934803376051	-4.999282108138089	0	0	-15.114613601743	-10.72331705352448	-13.61657457955226	135.0002416778529	-30.96510486120874	89.99483174048908	99.42843758352393	-0.05596715326667199	0	0	0	-14.05097243598548	0	90.09923116684855	-0.05596715326667199	0	0
1.2	13.71420234407671	-6.030996294150587	16.71276275861524	0	0.9399999998679526	0	44.92932503955145	-10.001662784796	0	60.09948663887486	1.048933920606707	-4.999284229769951	0	0	44.92932503955145	-10.001662784796	0	60.09948663887486	1.048933920606707	-4.999284229769951	0	0	-12.85424269048321	-8.985585978800792	-15.36724913463462	136.1508265276249	-29.20294848130948	89.99498858738792	102.0649803761908	-0.05594194939359378	0	0	0	-14.05128749793399	0	90.09918636140559	-0.05594194939359378	0	0
1.21	13.70788025503615	-6.031820945398118	16.7088354114594	0	0.9399999998679526	0	44.92936374771184	-10.00165959770926	0	60.09944399819452	1.048933176386439	-4.999286019379094	0	0	44.92936374771184	-10.00165959770926	0	60.09944399819452	1.048933176386439	-4.999286019379094	0	0	-12.7959816472563	-7.72081836371383	-16.79421724527379	137.6843122432037	-26.58989755285758	89.99529200686578	104.1760637469358	-0.0559206854628946	0	0	0	-14.05155323939529	0	90.099148560079	-0.0559206854628946	0	0
1.22	13.72066497396566	-6.02259311053415	16.71160556706187	0	0.9399999998679526	0	44.92940450010585	-10.00165627829471	0	60.09939875193745	1.048932386690279	-4.99928787892849	0	0	44.92940450010585	-10.00165627829471	0	60.09939875193745	1.048932386690279	-4.99928787892849	0	0	-12.35522553607581	-5.168507764523128	-18.8425990119658	140.5565263965078	-23.51177079027606	89.99545225689454	108.0706125097006	-0.05589822806346931	0	0	0	-14.0518346404596	0	90.09910863710049	-0.05589822806346931	0	0
1.23	13.7161457317176	-6.0333601970917	16.70881572475333	0	0.9399999998679526	0	44.92945520290282	-10.00165212415601	0	60.09934279219847	1.048931410008586	-4.999290207763945	0	0	44.92945520290282	-10.00165212415601	0	60.09934279219847	1.048931410008586	-4.999290207763945	0	0	-11.15167692440144	-3.072610310005335	-20.30811056724002	141.3601570349595	-20.23647175055717	89.9957615100101	108.4896083961858	-0.05587034734793848	0	0	0	-14.05218333892886	0	90.09905907298027	-0.05587034734793848	0	0
1.24	13.71638219517655	-6.024871943150846	16.71676448450589	0	0.9399999998679526	0	44.9300239485602	-10.00159923058902	0	60.09875386687511	1.048921131322645	-4.999320261585457	0	0	44.9300239485602	-10.00159923058902	0	60.09875386687511	1.048921131322645	-4.999320261585457	0	0	-11.15905786783838	-2.199249043056969	-21.16241849731343	143.6898166428271	-18.96931434044188	89.99581898540912	111.8326098114011	-0.05557158119196979	0	0	0	-14.05577639526451	0	90.09852794985144	-0.05557158119196979	0	0
